<svg width="98" height="20" viewBox="0 0 98 20" fill="none" xmlns="http://www.w3.org/2000/svg">
<rect width="98" height="20" rx="3" fill="url(#paint0_linear)"/>
<g filter="url(#filter0_d)">
<path d="M24.4399 9.54639H21.1582V13H20.127V5.17969H24.9717V6.02832H21.1582V8.70312H24.4399V9.54639ZM27.1309 13H26.1372V7.18848H27.1309V13ZM26.0566 5.64697C26.0566 5.48584 26.105 5.34977 26.2017 5.23877C26.3019 5.12777 26.4487 5.07227 26.6421 5.07227C26.8354 5.07227 26.9823 5.12777 27.0825 5.23877C27.1828 5.34977 27.2329 5.48584 27.2329 5.64697C27.2329 5.80811 27.1828 5.94238 27.0825 6.0498C26.9823 6.15723 26.8354 6.21094 26.6421 6.21094C26.4487 6.21094 26.3019 6.15723 26.2017 6.0498C26.105 5.94238 26.0566 5.80811 26.0566 5.64697ZM28.4897 10.0459C28.4897 9.13997 28.6992 8.42025 29.1182 7.88672C29.5371 7.34961 30.0921 7.08105 30.7832 7.08105C31.4922 7.08105 32.0454 7.33171 32.4429 7.83301L32.4912 7.18848H33.3989V12.8604C33.3989 13.6123 33.1751 14.2049 32.7275 14.6382C32.2835 15.0715 31.6855 15.2881 30.9336 15.2881C30.5146 15.2881 30.1047 15.1986 29.7036 15.0195C29.3026 14.8405 28.9964 14.5952 28.7852 14.2837L29.3008 13.6875C29.7269 14.2139 30.2479 14.4771 30.8638 14.4771C31.3472 14.4771 31.7231 14.341 31.9917 14.0688C32.2638 13.7967 32.3999 13.4136 32.3999 12.9194V12.4199C32.0024 12.8783 31.46 13.1074 30.7725 13.1074C30.0921 13.1074 29.5407 12.8335 29.1182 12.2856C28.6992 11.7378 28.4897 10.9912 28.4897 10.0459ZM29.4888 10.1587C29.4888 10.814 29.623 11.3296 29.8916 11.7056C30.1602 12.078 30.5361 12.2642 31.0195 12.2642C31.6462 12.2642 32.1063 11.9795 32.3999 11.4102V8.75684C32.0955 8.20182 31.639 7.92432 31.0303 7.92432C30.5469 7.92432 30.1691 8.1123 29.897 8.48828C29.6248 8.86426 29.4888 9.42106 29.4888 10.1587ZM35.8374 7.18848L35.8643 7.83301C36.2904 7.33171 36.8651 7.08105 37.5884 7.08105C38.4012 7.08105 38.9544 7.39258 39.248 8.01562C39.4414 7.73633 39.6921 7.51074 40 7.33887C40.3115 7.16699 40.6785 7.08105 41.1011 7.08105C42.3758 7.08105 43.0239 7.75602 43.0454 9.10596V13H42.0518V9.16504C42.0518 8.74967 41.9569 8.43994 41.7671 8.23584C41.5773 8.02816 41.2586 7.92432 40.811 7.92432C40.4422 7.92432 40.1361 8.03532 39.8926 8.25732C39.6491 8.47575 39.5076 8.77116 39.4683 9.14355V13H38.4692V9.19189C38.4692 8.34684 38.0557 7.92432 37.2285 7.92432C36.5768 7.92432 36.131 8.20182 35.8911 8.75684V13H34.8975V7.18848H35.8374ZM48.1372 13C48.0799 12.8854 48.0334 12.6813 47.9976 12.3877C47.5356 12.8675 46.9842 13.1074 46.3433 13.1074C45.7703 13.1074 45.2995 12.9463 44.9307 12.624C44.5654 12.2982 44.3828 11.8864 44.3828 11.3887C44.3828 10.7835 44.612 10.3145 45.0703 9.98145C45.5322 9.64486 46.1803 9.47656 47.0146 9.47656H47.9814V9.02002C47.9814 8.67269 47.8776 8.39697 47.6699 8.19287C47.4622 7.98519 47.1561 7.88135 46.7515 7.88135C46.397 7.88135 46.0998 7.97087 45.8599 8.1499C45.62 8.32894 45.5 8.54557 45.5 8.7998H44.501C44.501 8.50977 44.603 8.23047 44.8071 7.96191C45.0148 7.68978 45.2941 7.47493 45.645 7.31738C45.9995 7.15983 46.388 7.08105 46.8105 7.08105C47.4801 7.08105 48.0047 7.24935 48.3843 7.58594C48.7638 7.91895 48.9608 8.37907 48.9751 8.96631V11.6411C48.9751 12.1746 49.0431 12.599 49.1792 12.9141V13H48.1372ZM46.4883 12.2427C46.7998 12.2427 47.0952 12.1621 47.3745 12.001C47.6538 11.8398 47.8561 11.6304 47.9814 11.3726V10.1802H47.2026C45.9852 10.1802 45.3765 10.5365 45.3765 11.249C45.3765 11.5605 45.4803 11.804 45.688 11.9795C45.8957 12.1549 46.1624 12.2427 46.4883 12.2427Z" fill="white"/>
</g>
<rect x="59" width="39" height="20" rx="3" fill="#FF318E"/>
<path d="M59 0H63V20H59V0Z" fill="#FF318E"/>
<g filter="url(#filter1_d)">
<path d="M65.0112 13H64.0176V7.18848H65.0112V13ZM63.937 5.64697C63.937 5.48584 63.9854 5.34977 64.082 5.23877C64.1823 5.12777 64.3291 5.07227 64.5225 5.07227C64.7158 5.07227 64.8626 5.12777 64.9629 5.23877C65.0632 5.34977 65.1133 5.48584 65.1133 5.64697C65.1133 5.80811 65.0632 5.94238 64.9629 6.0498C64.8626 6.15723 64.7158 6.21094 64.5225 6.21094C64.3291 6.21094 64.1823 6.15723 64.082 6.0498C63.9854 5.94238 63.937 5.80811 63.937 5.64697ZM67.541 7.18848L67.5679 7.83301C67.994 7.33171 68.5687 7.08105 69.292 7.08105C70.1048 7.08105 70.658 7.39258 70.9517 8.01562C71.145 7.73633 71.3957 7.51074 71.7036 7.33887C72.0151 7.16699 72.3822 7.08105 72.8047 7.08105C74.0794 7.08105 74.7275 7.75602 74.749 9.10596V13H73.7554V9.16504C73.7554 8.74967 73.6605 8.43994 73.4707 8.23584C73.2809 8.02816 72.9622 7.92432 72.5146 7.92432C72.1458 7.92432 71.8397 8.03532 71.5962 8.25732C71.3527 8.47575 71.2113 8.77116 71.1719 9.14355V13H70.1729V9.19189C70.1729 8.34684 69.7593 7.92432 68.9321 7.92432C68.2804 7.92432 67.8346 8.20182 67.5947 8.75684V13H66.6011V7.18848H67.541ZM77.3325 13H76.3389V7.18848H77.3325V13ZM76.2583 5.64697C76.2583 5.48584 76.3066 5.34977 76.4033 5.23877C76.5036 5.12777 76.6504 5.07227 76.8438 5.07227C77.0371 5.07227 77.1839 5.12777 77.2842 5.23877C77.3844 5.34977 77.4346 5.48584 77.4346 5.64697C77.4346 5.80811 77.3844 5.94238 77.2842 6.0498C77.1839 6.15723 77.0371 6.21094 76.8438 6.21094C76.6504 6.21094 76.5036 6.15723 76.4033 6.0498C76.3066 5.94238 76.2583 5.80811 76.2583 5.64697ZM79.8677 7.18848L79.8999 7.91895C80.3439 7.36035 80.924 7.08105 81.6401 7.08105C82.8683 7.08105 83.4878 7.77393 83.4985 9.15967V13H82.5049V9.1543C82.5013 8.73535 82.4046 8.42562 82.2148 8.2251C82.0286 8.02458 81.7368 7.92432 81.3394 7.92432C81.0171 7.92432 80.7342 8.01025 80.4907 8.18213C80.2472 8.354 80.0575 8.57959 79.9214 8.85889V13H78.9277V7.18848H79.8677ZM86.6191 10.3091L85.9961 10.959V13H85.0024V4.75H85.9961V9.73975L86.5278 9.10059L88.3379 7.18848H89.5464L87.2852 9.61621L89.8096 13H88.644L86.6191 10.3091Z" fill="white"/>
</g>
<g filter="url(#filter2_d)">
<path d="M11.76 8.99998C11.76 7.89542 12.6375 7 13.72 7H13.72C14.8025 7 15.68 7.89543 15.68 9C15.68 10.1046 14.8025 11 13.72 11H13.72C12.6375 11 11.76 10.1046 11.76 9.00002V8.99998Z" fill="#1ABCFE"/>
<path d="M7.84003 13C7.84003 11.8954 8.71755 11 9.80003 11H11.76V13C11.76 14.1046 10.8825 15 9.80003 15C8.71755 15 7.84003 14.1046 7.84003 13Z" fill="#0ACF83"/>
<path d="M11.76 3V7H13.72C14.8025 7 15.68 6.10457 15.68 5C15.68 3.89543 14.8025 3 13.72 3H11.76Z" fill="#FF7262"/>
<path d="M7.84003 5C7.84003 6.10457 8.71755 7 9.80003 7L11.76 7V3L9.80003 3C8.71755 3 7.84003 3.89543 7.84003 5Z" fill="#F24E1E"/>
<path d="M7.84003 9C7.84003 10.1046 8.71755 11 9.80003 11H11.76V7L9.80003 7C8.71755 7 7.84003 7.89543 7.84003 9Z" fill="#A259FF"/>
</g>
<defs>
<filter id="filter0_d" x="20.127" y="5.07227" width="29.0522" height="11.2158" filterUnits="userSpaceOnUse" color-interpolation-filters="sRGB">
<feFlood flood-opacity="0" result="BackgroundImageFix"/>
<feColorMatrix in="SourceAlpha" type="matrix" values="0 0 0 0 0 0 0 0 0 0 0 0 0 0 0 0 0 0 127 0"/>
<feOffset dy="1"/>
<feColorMatrix type="matrix" values="0 0 0 0 0.00392157 0 0 0 0 0.00392157 0 0 0 0 0.00392157 0 0 0 0.3 0"/>
<feBlend mode="normal" in2="BackgroundImageFix" result="effect1_dropShadow"/>
<feBlend mode="normal" in="SourceGraphic" in2="effect1_dropShadow" result="shape"/>
</filter>
<filter id="filter1_d" x="63.937" y="4.75" width="25.8726" height="9.25" filterUnits="userSpaceOnUse" color-interpolation-filters="sRGB">
<feFlood flood-opacity="0" result="BackgroundImageFix"/>
<feColorMatrix in="SourceAlpha" type="matrix" values="0 0 0 0 0 0 0 0 0 0 0 0 0 0 0 0 0 0 127 0"/>
<feOffset dy="1"/>
<feColorMatrix type="matrix" values="0 0 0 0 0.00392157 0 0 0 0 0.00392157 0 0 0 0 0.00392157 0 0 0 0.3 0"/>
<feBlend mode="normal" in2="BackgroundImageFix" result="effect1_dropShadow"/>
<feBlend mode="normal" in="SourceGraphic" in2="effect1_dropShadow" result="shape"/>
</filter>
<filter id="filter2_d" x="7.84003" y="3" width="7.83998" height="13" filterUnits="userSpaceOnUse" color-interpolation-filters="sRGB">
<feFlood flood-opacity="0" result="BackgroundImageFix"/>
<feColorMatrix in="SourceAlpha" type="matrix" values="0 0 0 0 0 0 0 0 0 0 0 0 0 0 0 0 0 0 127 0"/>
<feOffset dy="1"/>
<feColorMatrix type="matrix" values="0 0 0 0 0 0 0 0 0 0 0 0 0 0 0 0 0 0 0.25 0"/>
<feBlend mode="normal" in2="BackgroundImageFix" result="effect1_dropShadow"/>
<feBlend mode="normal" in="SourceGraphic" in2="effect1_dropShadow" result="shape"/>
</filter>
<linearGradient id="paint0_linear" x1="49" y1="0" x2="49" y2="20" gradientUnits="userSpaceOnUse">
<stop stop-color="#5F5F5F"/>
<stop offset="0.489583" stop-color="#575757"/>
<stop offset="1" stop-color="#4E4E4E"/>
</linearGradient>
</defs>
</svg>
