<svg width="98" height="20" xmlns="http://www.w3.org/2000/svg">
    <linearGradient id="a" x2="0" y2="100%">
        <stop offset="0" stop-color="#bbb" stop-opacity="0.1"/>
        <stop offset="1" stop-opacity="0.1"/>
    </linearGradient>

    <rect rx="3" width="91" height="20" fill="#555"/>
    <rect width="96" height="20" rx="3" fill="url(#a)"/>

    <rect x="59" width="3" height="20" fill="#FF318E"/>
    <rect x="59" width="39" height="20" rx="3" fill="#FF318E"/>

    <g fill="#fff" text-anchor="middle" font-family="DejaVu Sans,Verdana,Geneva,sans-serif" font-size="11">
        <text x="36" y="15" fill="#010101" fill-opacity="0.3">Figma</text>
        <text x="36" y="14">Figma</text>
        <text x="78" y="15" fill="#010101" fill-opacity="0.3">imink</text>
        <text x="78" y="14">imink</text>
    </g>

    <g id="Figma-imink-copy" transform="translate(0.000000, -1.000000)" fill-rule="nonzero">
        <g id="Group" transform="translate(8.000000, 3.000000)">
            <g id="path0_fill-link" transform="translate(4.050000, 5.950000)" fill="#1ABCFE">
                <path d="M0,2.02497655 C0,0.906613816 0.906613816,0 2.02497655,0 L2.025,0 C3.14337553,0 4.05,0.906622342 4.05,2.025 C4.05,3.14337553 3.14337553,4.05 2.025,4.05 L2.02497655,4.05 C0.906613816,4.05 0,3.14339684 0,2.02502345 L0,2.02497655 Z" id="path0_fill"></path>
            </g>
            <g id="path1_fill-link" transform="translate(-0.000000, 10.000000)" fill="#0ACF83">
                <path d="M0,2.025 C0,0.906622342 0.906622342,0 2.025,0 L4.05,0 L4.05,2.025 C4.05,3.14337553 3.14337553,4.05 2.025,4.05 C0.906622342,4.05 0,3.14337553 0,2.025 Z" id="path1_fill"></path>
            </g>
            <g id="Rectangle-55" transform="translate(4.050000, 1.900000)" fill="#FF7262">
                <g id="path2_fill-link" transform="translate(2.500000, 2.500000) scale(-1, 1) rotate(90.000000) translate(-2.500000, -2.500000) ">
                    <path d="M0,0 L4.05,0 L4.05,2.025 C4.05,3.14337553 3.14337553,4.05 2.025,4.05 C0.906622342,4.05 0,3.14337553 0,2.025 L0,0 Z" id="path2_fill"></path>
                </g>
            </g>
            <g id="Rectangle-55" transform="translate(-0.000000, -0.000000)" fill="#F24E1E">
                <g id="path3_fill-link" transform="translate(2.500000, 3.450000) scale(-1, 1) rotate(-180.000000) translate(-2.500000, -3.450000) translate(0.000000, 0.950000)">
                    <path d="M0,2.025 C0,0.906622342 0.906622342,0 2.025,0 L4.05,0 L4.05,4.05 L2.025,4.05 C0.906622342,4.05 0,3.14337553 0,2.025 Z" id="path3_fill"></path>
                </g>
            </g>
            <g id="Rectangle-55" transform="translate(-0.000000, 4.050000)" fill="#A259FF">
                <g id="path3_fill-link" transform="translate(2.500000, 3.450000) scale(-1, 1) rotate(-180.000000) translate(-2.500000, -3.450000) translate(0.000000, 0.950000)">
                    <path d="M0,2.025 C0,0.906622342 0.906622342,0 2.025,0 L4.05,0 L4.05,4.05 L2.025,4.05 C0.906622342,4.05 0,3.14337553 0,2.025 Z" id="path3_fill"></path>
                </g>
            </g>
        </g>
    </g>
</svg>
